<?xml version="1.0" encoding="utf-8"?>
<!-- Generator: Adobe Illustrator 27.5.0, SVG Export Plug-In . SVG Version: 6.00 Build 0)  -->
<svg version="1.1" xmlns="http://www.w3.org/2000/svg" xmlns:xlink="http://www.w3.org/1999/xlink" x="0px" y="0px"
	 viewBox="0 0 500 500" style="enable-background:new 0 0 500 500;" xml:space="preserve">
<g id="BACKGROUND">
	<rect style="fill:#EBFEFF;" width="500" height="500"/>
</g>
<g id="OBJECTS">
	<g>
		<path style="fill:#AEF9FF;" d="M256.32,72.157h-12.64c-109.307,0-197.918,88.611-197.918,197.918v165.777h408.476V270.074
			C454.238,160.767,365.627,72.157,256.32,72.157z"/>
		<g>
			<path style="fill:#FFFFFF;" d="M111.744,282.28c-2.381,0-4.539,0.942-6.133,2.468c0.097-0.724,0.152-1.462,0.152-2.213
				c0-9.109-7.385-16.494-16.494-16.494c-8.762,0-15.925,6.833-16.459,15.461c-1.916-1.793-4.484-2.899-7.315-2.899
				c-5.921,0-10.72,4.799-10.72,10.72s4.8,10.72,10.72,10.72h46.249c4.905,0,8.881-3.976,8.881-8.881S116.649,282.28,111.744,282.28
				z"/>
			<path style="fill:#FFFFFF;" d="M359.423,253.742c3.586,0,6.836,1.419,9.238,3.717c-0.146-1.091-0.229-2.202-0.229-3.333
				c0-13.72,11.122-24.842,24.842-24.842c13.197,0,23.985,10.292,24.788,23.286c2.886-2.701,6.753-4.366,11.018-4.366
				c8.917,0,16.146,7.229,16.146,16.146c0,8.917-7.229,16.146-16.146,16.146h-69.657c-7.388,0-13.377-5.989-13.377-13.376
				S352.036,253.742,359.423,253.742z"/>
		</g>
		<g>
			<g>
				<path style="fill:#6EC116;" d="M466.945,340.227c0.288-0.764,0.482-1.802-0.203-2.245c-0.509-0.328-1.179-0.085-1.726,0.175
					c-13.456,6.411-22.525,19.255-30.572,31.802c2.667-7.719,4.312-15.791,4.879-23.939c-6.759,4.435-11.459,11.495-14.439,19.01
					c-2.98,7.515-4.393,15.542-5.788,23.505c1.091-7.848-0.883-16.081-5.415-22.58c-8.61,10.364-11.232,25.377-6.644,38.045
					l3.953,7.637c14.219-2.235,27.757-8.644,38.499-18.226c1.712-1.527,3.498-3.528,3.129-5.793
					c-8.383,0.629-16.638,2.923-24.143,6.711c12.873-6.286,26.222-12.952,34.939-24.32c1.811-2.362,3.438-5.567,2.008-8.177
					c-7.874,2.73-15.286,6.785-21.832,11.943C453.8,364.559,462.093,353.099,466.945,340.227z"/>
				<path style="fill:#FEC803;" d="M412.374,318.508c-0.122-0.641-0.422-1.43-1.074-1.446c-0.484-0.012-0.84,0.434-1.104,0.839
					c-6.505,9.981-7.336,22.521-7.595,34.432c-1.399-6.376-3.641-12.567-6.651-18.359c-2.761,5.842-3.023,12.616-1.924,18.983
					c1.1,6.367,3.482,12.431,5.85,18.442c-2.527-5.807-7.305-10.599-13.105-13.143c-1.552,10.657,2.917,21.988,11.326,28.716
					l5.879,3.561c8.766-7.451,15.327-17.465,18.659-28.477c0.531-1.756,0.915-3.864-0.281-5.255
					c-5.455,3.923-10.128,8.929-13.668,14.64c6.16-9.652,12.485-19.763,13.691-31.149c0.251-2.366,0.024-5.229-2.039-6.413
					c-4.232,5.144-7.597,10.999-9.911,17.245C413.551,340.582,414.43,329.309,412.374,318.508z"/>
				<path style="fill:#09777F;" d="M374.805,374.925c1.739-5.295,7.455-8.428,13.002-8.972c9.023-0.883,18.34,4.221,22.453,12.301
					c3.95,7.761,3.139,16.985,2.232,25.646c6.991-5.401,18.022-2.65,23.506,4.275c5.485,6.925,6.229,16.64,4.322,25.265h-65.514
					V374.925z"/>
			</g>
			<g>
				<path style="fill:#6EC116;" d="M33.055,340.227c-0.288-0.764-0.482-1.802,0.203-2.245c0.509-0.328,1.179-0.085,1.726,0.175
					c13.456,6.411,22.525,19.255,30.572,31.802c-2.667-7.719-4.312-15.791-4.879-23.939c6.759,4.435,11.459,11.495,14.439,19.01
					c2.98,7.515,4.393,15.542,5.788,23.505c-1.091-7.848,0.883-16.081,5.415-22.58c8.61,10.364,11.232,25.377,6.644,38.045
					l-3.953,7.637c-14.219-2.235-27.757-8.644-38.499-18.226c-1.713-1.527-3.498-3.528-3.129-5.793
					c8.383,0.629,16.638,2.923,24.142,6.711c-12.873-6.286-26.222-12.952-34.939-24.32c-1.811-2.362-3.438-5.567-2.008-8.177
					c7.874,2.73,15.286,6.785,21.832,11.943C46.2,364.559,37.907,353.099,33.055,340.227z"/>
				<path style="fill:#FEC803;" d="M87.626,318.508c0.122-0.641,0.422-1.43,1.074-1.446c0.484-0.012,0.84,0.434,1.104,0.839
					c6.505,9.981,7.336,22.521,7.595,34.432c1.399-6.376,3.641-12.567,6.651-18.359c2.761,5.842,3.023,12.616,1.924,18.983
					c-1.1,6.367-3.482,12.431-5.85,18.442c2.527-5.807,7.305-10.599,13.105-13.143c1.552,10.657-2.917,21.988-11.326,28.716
					l-5.879,3.561c-8.766-7.451-15.327-17.465-18.659-28.477c-0.531-1.756-0.915-3.864,0.281-5.255
					c5.455,3.923,10.128,8.929,13.668,14.64c-6.16-9.652-12.485-19.763-13.691-31.149c-0.251-2.366-0.024-5.229,2.039-6.413
					c4.232,5.144,7.597,10.999,9.911,17.245C86.448,340.582,85.57,329.309,87.626,318.508z"/>
				<path style="fill:#09777F;" d="M125.195,374.925c-1.739-5.295-7.455-8.428-13.002-8.972c-9.023-0.883-18.34,4.221-22.453,12.301
					c-3.95,7.761-3.139,16.985-2.232,25.646c-6.991-5.401-18.022-2.65-23.506,4.275c-5.485,6.925-6.229,16.64-4.322,25.265h65.514
					V374.925z"/>
			</g>
		</g>
		<g>
			<g>
				<g>
					<rect x="188.953" y="131.068" style="fill:#09777F;" width="10.821" height="17.012"/>
					<rect x="309.525" y="131.068" style="fill:#09777F;" width="10.821" height="17.012"/>
				</g>
				<g>
					<rect x="163.252" y="60.236" style="fill:#E66D00;" width="182.794" height="73.926"/>
					<path style="fill:#FEC803;" d="M336.193,129.37H173.107c0-2.761-2.239-5-5-5V70.027c2.761,0,5-2.239,5-5h163.086
						c0,2.761,2.239,5,5,5v54.344C338.431,124.37,336.193,126.609,336.193,129.37z"/>
					<g>
						<g>
							<text transform="matrix(1 0 0 1 196.1343 112.0301)" style="fill:#FFFFFF; font-family:'Baloo'; font-size:53.1724px;">Store</text>
						</g>
					</g>
				</g>
			</g>
			<g>
				<rect x="117.716" y="187.134" style="fill:#21ADBE;" width="264.569" height="243.804"/>
				<g>
					<g>
						<rect x="134.966" y="224.911" style="fill:#09777F;" width="34.868" height="11.623"/>
						<rect x="176.158" y="224.911" style="fill:#09777F;" width="34.868" height="11.623"/>
						<rect x="333.582" y="224.911" style="fill:#09777F;" width="34.868" height="11.623"/>
					</g>
					<rect x="155.562" y="209.528" style="fill:#09777F;" width="34.868" height="11.623"/>
				</g>
				<g>
					<path style="fill:#E66D00;" d="M117.716,220.111L117.716,220.111c-10.437,0-18.898-8.461-18.898-18.898v-2.091h37.795v2.091
						C136.613,211.65,128.153,220.111,117.716,220.111z"/>
					<g>
						<path style="fill:#FEC803;" d="M155.511,220.111L155.511,220.111c-10.437,0-18.898-8.461-18.898-18.898v-2.091h37.796v2.091
							C174.409,211.65,165.948,220.111,155.511,220.111z"/>
						<path style="fill:#E66D00;" d="M193.307,220.111L193.307,220.111c-10.437,0-18.898-8.461-18.898-18.898v-2.091h37.796v2.091
							C212.204,211.65,203.744,220.111,193.307,220.111z"/>
						<path style="fill:#FEC803;" d="M231.102,220.111L231.102,220.111c-10.437,0-18.898-8.461-18.898-18.898v-2.091H250v2.091
							C250,211.65,241.539,220.111,231.102,220.111z"/>
						<path style="fill:#E66D00;" d="M268.898,220.111L268.898,220.111c-10.437,0-18.898-8.461-18.898-18.898v-2.091h37.796v2.091
							C287.796,211.65,279.335,220.111,268.898,220.111z"/>
						<path style="fill:#FEC803;" d="M306.693,220.111L306.693,220.111c-10.437,0-18.898-8.461-18.898-18.898v-2.091h37.796v2.091
							C325.591,211.65,317.13,220.111,306.693,220.111z"/>
						<path style="fill:#E66D00;" d="M344.489,220.111L344.489,220.111c-10.437,0-18.898-8.461-18.898-18.898v-2.091h37.796v2.091
							C363.387,211.65,354.926,220.111,344.489,220.111z"/>
						<path style="fill:#FEC803;" d="M382.284,220.111L382.284,220.111c-10.437,0-18.898-8.461-18.898-18.898v-2.091h37.796v2.091
							C401.182,211.65,392.721,220.111,382.284,220.111z"/>
						<g>
							<polygon style="fill:#FEC803;" points="175.58,146.079 150.773,146.079 98.818,199.123 136.613,199.123 							"/>
							<polygon style="fill:#E66D00;" points="200.386,146.079 175.58,146.079 136.613,199.123 174.409,199.123 							"/>
							<polygon style="fill:#FEC803;" points="225.193,146.079 200.386,146.079 174.409,199.123 212.204,199.123 							"/>
							<polygon style="fill:#E66D00;" points="250,146.079 225.193,146.079 212.204,199.123 250,199.123 							"/>
							<polygon style="fill:#FEC803;" points="274.807,146.079 250,146.079 250,199.123 287.796,199.123 							"/>
							<polygon style="fill:#E66D00;" points="299.613,146.079 274.807,146.079 287.796,199.123 325.591,199.123 							"/>
							<polygon style="fill:#FEC803;" points="324.42,146.079 299.613,146.079 325.591,199.123 363.387,199.123 							"/>
							<polygon style="fill:#E66D00;" points="349.227,146.079 324.42,146.079 363.387,199.123 401.182,199.123 							"/>
						</g>
					</g>
				</g>
				<g>
					<g>
						<rect x="134.966" y="245.09" style="fill:#FEC901;" width="93.391" height="180.935"/>
						<rect x="140.672" y="252.39" style="fill:#AEF9FF;" width="81.98" height="166.33"/>
						<g>
							<polygon style="fill:#FFFFFF;" points="222.652,266.04 222.652,305.62 186.082,418.72 174.932,418.72 							"/>
							<polygon style="fill:#FFFFFF;" points="215.102,252.39 152.732,418.72 140.672,418.72 140.672,396.32 191.612,252.39 							
								"/>
						</g>
						<rect x="134.966" y="331.283" style="fill:#FEC901;" width="93.391" height="8.549"/>
						<rect x="201.631" y="335.558" style="fill:#FEC901;" width="23.478" height="19.685"/>
						<circle style="fill:#09777F;" cx="213.37" cy="345.4" r="4.5"/>
					</g>
					<rect x="126.55" y="418.72" style="fill:#09777F;" width="110.225" height="12.218"/>
					<g>
						<rect x="243.232" y="245.09" style="fill:#FEC901;" width="125.217" height="110.152"/>
						<rect x="249.103" y="250.25" style="fill:#AEF9FF;" width="113.48" height="99.83"/>
						<g>
							<polygon style="fill:#FFFFFF;" points="348.213,250.25 315.933,350.08 304.423,350.08 335.623,250.25 							"/>
							<polygon style="fill:#FFFFFF;" points="321.733,250.25 284.303,350.08 263.613,350.08 298.943,250.25 							"/>
						</g>
					</g>
					<g>
						<path style="fill:none;stroke:#09777F;stroke-miterlimit:10;" d="M331.897,280.156l-21.44-15.35
							c-2.201-1.576-5.161-1.576-7.362,0l-21.44,15.35"/>
						<path style="fill:#E66D00;" d="M339.935,275.787H271.75c-3.373,0-6.108,2.735-6.108,6.108v36.542
							c0,3.373,2.735,6.108,6.108,6.108h68.186c3.373,0,6.108-2.735,6.108-6.108v-36.542
							C346.043,278.521,343.309,275.787,339.935,275.787z"/>
						<g>
							<text transform="matrix(1 0 0 1 277.8736 297.4831)"><tspan x="0" y="0" style="fill:#FFFFFF; font-family:'Baloo'; font-size:17.5249px;">WE ARE</tspan><tspan x="7.194" y="16" style="fill:#FFFFFF; font-family:'Baloo'; font-size:17.5249px;">OPEN</tspan></text>
						</g>
					</g>
					<g>
						<rect x="237.349" y="355.243" style="fill:#09777F;" width="136.984" height="11.601"/>
					</g>
				</g>
				<g>
					<g>
						<rect x="267.811" y="401.985" style="fill:#09777F;" width="34.868" height="11.623"/>
						<rect x="309.003" y="401.985" style="fill:#09777F;" width="34.868" height="11.623"/>
					</g>
					<rect x="288.407" y="386.602" style="fill:#09777F;" width="34.868" height="11.623"/>
				</g>
			</g>
		</g>
		<path style="fill:#6EC116;" d="M459,440.764H41c-2.713,0-4.913-2.2-4.913-4.913l0,0c0-2.713,2.2-4.913,4.913-4.913h418
			c2.713,0,4.913,2.2,4.913,4.913l0,0C463.913,438.565,461.713,440.764,459,440.764z"/>
	</g>
</g>
</svg>
